<mxfile host="Electron" modified="2023-06-03T15:59:23.001Z" agent="Mozilla/5.0 (Windows NT 10.0; Win64; x64) AppleWebKit/537.36 (KHTML, like Gecko) draw.io/21.2.8 Chrome/112.0.5615.165 Electron/24.2.0 Safari/537.36" etag="8lPH1qymFbXZerUo-5rG" version="21.2.8" type="device">
  <diagram id="dX7Dphyso45SB9-RoEhv" name="Page-1">
    <mxGraphModel dx="1418" dy="828" grid="1" gridSize="10" guides="1" tooltips="1" connect="1" arrows="1" fold="1" page="1" pageScale="1" pageWidth="827" pageHeight="1169" math="0" shadow="0">
      <root>
        <mxCell id="0" />
        <mxCell id="1" parent="0" />
        <mxCell id="nfxZPmU7g6QgWNAvG-ER-2" value="" style="whiteSpace=wrap;html=1;aspect=fixed;strokeWidth=5;fontFamily=xkcd;fillColor=#FFFFFF;strokeColor=#FFFFFF;" parent="1" vertex="1">
          <mxGeometry x="210" y="80" width="600" height="600" as="geometry" />
        </mxCell>
        <mxCell id="8b6ggLF4gSHIukh4vJdm-18" value="&lt;font&gt;&lt;font color=&quot;#000000&quot;&gt;&lt;span style=&quot;font-size: 24px;&quot;&gt;&lt;b&gt;Crafting digital marvels&lt;/b&gt;&lt;/span&gt;&lt;/font&gt;&lt;br&gt;&lt;/font&gt;" style="text;html=1;strokeColor=none;fillColor=none;align=center;verticalAlign=middle;whiteSpace=wrap;rounded=0;fontFamily=xkcd;" parent="1" vertex="1">
          <mxGeometry x="225" y="120" width="570" height="22" as="geometry" />
        </mxCell>
        <mxCell id="8b6ggLF4gSHIukh4vJdm-24" value="&lt;font&gt;&lt;font color=&quot;#000000&quot;&gt;&lt;span style=&quot;font-size: 18px;&quot;&gt;&lt;b&gt;Innovation, excellence, and beyond&amp;nbsp;&lt;/b&gt;&lt;/span&gt;&lt;/font&gt;&lt;br&gt;&lt;/font&gt;" style="text;html=1;strokeColor=none;fillColor=none;align=center;verticalAlign=middle;whiteSpace=wrap;rounded=0;fontFamily=xkcd;" parent="1" vertex="1">
          <mxGeometry x="210" y="150" width="600" height="20" as="geometry" />
        </mxCell>
        <mxCell id="8b6ggLF4gSHIukh4vJdm-30" value="" style="endArrow=none;dashed=1;html=1;strokeWidth=2;strokeColor=#000000;" parent="1" edge="1">
          <mxGeometry width="50" height="50" relative="1" as="geometry">
            <mxPoint x="797.5" y="190" as="sourcePoint" />
            <mxPoint x="222.5" y="190" as="targetPoint" />
          </mxGeometry>
        </mxCell>
        <mxCell id="k-dpR7HA_-HZ3Fbqk2lw-16" value="" style="endArrow=none;dashed=1;html=1;strokeWidth=2;strokeColor=#000000;" parent="1" edge="1">
          <mxGeometry width="50" height="50" relative="1" as="geometry">
            <mxPoint x="800" y="584" as="sourcePoint" />
            <mxPoint x="225" y="584" as="targetPoint" />
          </mxGeometry>
        </mxCell>
        <mxCell id="k-dpR7HA_-HZ3Fbqk2lw-17" value="&lt;font style=&quot;&quot;&gt;&lt;font style=&quot;&quot; color=&quot;#000000&quot;&gt;&lt;b style=&quot;&quot;&gt;&lt;span style=&quot;font-size: 18px;&quot;&gt;Side note&lt;/span&gt;&lt;br&gt;&lt;/b&gt;&lt;/font&gt;&lt;b&gt;&lt;font style=&quot;font-size: 14px;&quot; color=&quot;#000000&quot;&gt;witness the alchemy of our process as we transform ideas into digital marvels. prepare to be amazed&lt;/font&gt;&lt;/b&gt;&lt;br&gt;&lt;/font&gt;" style="text;html=1;strokeColor=none;fillColor=none;align=center;verticalAlign=middle;whiteSpace=wrap;rounded=0;fontFamily=xkcd;" parent="1" vertex="1">
          <mxGeometry x="210" y="585" width="600" height="80" as="geometry" />
        </mxCell>
        <mxCell id="euaHSMH8fYii958cPEId-22" style="edgeStyle=orthogonalEdgeStyle;rounded=0;orthogonalLoop=1;jettySize=auto;html=1;exitX=0.5;exitY=1;exitDx=0;exitDy=0;strokeWidth=2;" parent="1" edge="1">
          <mxGeometry relative="1" as="geometry">
            <mxPoint x="661" y="451" as="sourcePoint" />
            <mxPoint x="661" y="451" as="targetPoint" />
          </mxGeometry>
        </mxCell>
        <mxCell id="pKVuHFSoDqtFi99w7tCS-15" value="&lt;font style=&quot;&quot;&gt;&lt;b&gt;&lt;font color=&quot;#000000&quot; style=&quot;font-size: 14px;&quot;&gt;Â©2023 All rights begrudgingly reserved. Unauthorized attempts to mimic our magic will result in a labyrinth of spaghetti code.&lt;/font&gt;&lt;/b&gt;&lt;br&gt;&lt;/font&gt;" style="text;html=1;strokeColor=none;fillColor=none;align=center;verticalAlign=middle;whiteSpace=wrap;rounded=0;rotation=-90;fontFamily=xkcd;" parent="1" vertex="1">
          <mxGeometry x="600" y="380" width="360" height="20" as="geometry" />
        </mxCell>
        <mxCell id="ESBs4Za4Zb-xoG1EwR6T-1" style="edgeStyle=orthogonalEdgeStyle;rounded=0;orthogonalLoop=1;jettySize=auto;html=1;exitX=0.75;exitY=0;exitDx=0;exitDy=0;entryX=0.775;entryY=-0.05;entryDx=0;entryDy=0;entryPerimeter=0;" parent="1" source="pKVuHFSoDqtFi99w7tCS-15" target="pKVuHFSoDqtFi99w7tCS-15" edge="1">
          <mxGeometry relative="1" as="geometry" />
        </mxCell>
        <mxCell id="ESBs4Za4Zb-xoG1EwR6T-2" value="" style="group" parent="1" vertex="1" connectable="0">
          <mxGeometry x="260" y="400" width="90" height="185" as="geometry" />
        </mxCell>
        <mxCell id="_axvJHcLCZw86LOWZs9C-13" value="" style="endArrow=none;html=1;strokeColor=#000000;strokeWidth=5;exitX=0.39;exitY=0.957;exitDx=0;exitDy=0;exitPerimeter=0;" parent="ESBs4Za4Zb-xoG1EwR6T-2" edge="1" source="r9DzthTGqOq0pMzTPkol-2">
          <mxGeometry width="50" height="50" relative="1" as="geometry">
            <mxPoint x="110" y="50" as="sourcePoint" />
            <mxPoint x="40" y="47.5" as="targetPoint" />
            <Array as="points">
              <mxPoint x="110" y="48" />
              <mxPoint x="90" y="70" />
            </Array>
          </mxGeometry>
        </mxCell>
        <mxCell id="_axvJHcLCZw86LOWZs9C-15" value="" style="endArrow=none;html=1;strokeColor=#000000;strokeWidth=5;" parent="ESBs4Za4Zb-xoG1EwR6T-2" edge="1">
          <mxGeometry width="50" height="50" relative="1" as="geometry">
            <mxPoint x="40" y="115" as="sourcePoint" />
            <mxPoint x="10" y="185" as="targetPoint" />
          </mxGeometry>
        </mxCell>
        <mxCell id="_axvJHcLCZw86LOWZs9C-12" value="" style="ellipse;whiteSpace=wrap;html=1;aspect=fixed;strokeColor=#000000;strokeWidth=5;fillColor=#000000;" parent="ESBs4Za4Zb-xoG1EwR6T-2" vertex="1">
          <mxGeometry x="20" width="45" height="45" as="geometry" />
        </mxCell>
        <mxCell id="_axvJHcLCZw86LOWZs9C-14" value="" style="endArrow=none;html=1;strokeColor=#000000;strokeWidth=5;" parent="ESBs4Za4Zb-xoG1EwR6T-2" edge="1">
          <mxGeometry width="50" height="50" relative="1" as="geometry">
            <mxPoint x="40" y="40" as="sourcePoint" />
            <mxPoint x="80" y="185" as="targetPoint" />
            <Array as="points">
              <mxPoint x="40" y="120" />
            </Array>
          </mxGeometry>
        </mxCell>
        <mxCell id="ESBs4Za4Zb-xoG1EwR6T-7" value="" style="group;flipH=1;" parent="1" vertex="1" connectable="0">
          <mxGeometry x="600" y="400" width="90" height="185" as="geometry" />
        </mxCell>
        <mxCell id="ESBs4Za4Zb-xoG1EwR6T-8" value="" style="endArrow=none;html=1;strokeColor=#000000;strokeWidth=5;" parent="ESBs4Za4Zb-xoG1EwR6T-7" edge="1">
          <mxGeometry width="50" height="50" relative="1" as="geometry">
            <mxPoint x="-12.11697931784397" y="54.560227395110815" as="sourcePoint" />
            <mxPoint x="50" y="47.5" as="targetPoint" />
            <Array as="points">
              <mxPoint y="70" />
            </Array>
          </mxGeometry>
        </mxCell>
        <mxCell id="ESBs4Za4Zb-xoG1EwR6T-9" value="" style="endArrow=none;html=1;strokeColor=#000000;strokeWidth=5;" parent="ESBs4Za4Zb-xoG1EwR6T-7" edge="1">
          <mxGeometry width="50" height="50" relative="1" as="geometry">
            <mxPoint x="50" y="115" as="sourcePoint" />
            <mxPoint x="80" y="185" as="targetPoint" />
          </mxGeometry>
        </mxCell>
        <mxCell id="ESBs4Za4Zb-xoG1EwR6T-11" value="" style="ellipse;whiteSpace=wrap;html=1;aspect=fixed;strokeColor=#000000;strokeWidth=5;fillColor=#000000;" parent="ESBs4Za4Zb-xoG1EwR6T-7" vertex="1">
          <mxGeometry x="25" width="45" height="45" as="geometry" />
        </mxCell>
        <mxCell id="ESBs4Za4Zb-xoG1EwR6T-12" value="" style="endArrow=none;html=1;strokeColor=#000000;strokeWidth=5;" parent="ESBs4Za4Zb-xoG1EwR6T-7" edge="1">
          <mxGeometry width="50" height="50" relative="1" as="geometry">
            <mxPoint x="50" y="40" as="sourcePoint" />
            <mxPoint x="10" y="185" as="targetPoint" />
            <Array as="points">
              <mxPoint x="50" y="120" />
            </Array>
          </mxGeometry>
        </mxCell>
        <mxCell id="r9DzthTGqOq0pMzTPkol-5" value="" style="endArrow=none;html=1;strokeColor=#000000;strokeWidth=5;" edge="1" parent="ESBs4Za4Zb-xoG1EwR6T-7">
          <mxGeometry width="50" height="50" relative="1" as="geometry">
            <mxPoint x="112.11999999999978" y="52.060227395110815" as="sourcePoint" />
            <mxPoint x="50.00302068215581" y="45" as="targetPoint" />
            <Array as="points">
              <mxPoint x="100.0030206821558" y="67.5" />
            </Array>
          </mxGeometry>
        </mxCell>
        <mxCell id="ESBs4Za4Zb-xoG1EwR6T-14" value="&lt;font color=&quot;#333333&quot; style=&quot;font-size: 14px;&quot; face=&quot;Comic Sans MS&quot;&gt;&lt;b&gt;But how do we ensure a seamless user experience?&lt;/b&gt;&lt;/font&gt;" style="whiteSpace=wrap;html=1;shape=mxgraph.basic.oval_callout;fillColor=#9AC7BF;spacingLeft=11;spacingRight=10;spacingBottom=2;strokeColor=#000000;" parent="1" vertex="1">
          <mxGeometry x="310" y="250" width="270" height="80" as="geometry" />
        </mxCell>
        <mxCell id="ESBs4Za4Zb-xoG1EwR6T-15" value="&lt;font face=&quot;Comic Sans MS&quot; color=&quot;#333333&quot;&gt;&lt;span style=&quot;font-size: 14px;&quot;&gt;&lt;b&gt;We piece together intutive navigation and smooth interactions.&lt;/b&gt;&lt;/span&gt;&lt;/font&gt;" style="whiteSpace=wrap;html=1;shape=mxgraph.basic.oval_callout;flipH=1;strokeColor=#000000;fillColor=#9AC7BF;spacingLeft=17;spacingRight=17;spacingBottom=0;" parent="1" vertex="1">
          <mxGeometry x="390" y="313.75" width="270" height="80" as="geometry" />
        </mxCell>
        <mxCell id="_axvJHcLCZw86LOWZs9C-16" value="" style="endArrow=none;html=1;strokeColor=#000000;strokeWidth=5;entryX=0.406;entryY=1.032;entryDx=0;entryDy=0;entryPerimeter=0;exitX=0.7;exitY=0.897;exitDx=0;exitDy=0;exitPerimeter=0;" parent="1" target="_axvJHcLCZw86LOWZs9C-12" edge="1" source="r9DzthTGqOq0pMzTPkol-2">
          <mxGeometry width="50" height="50" relative="1" as="geometry">
            <mxPoint x="358.83528493364565" y="469.20000000000005" as="sourcePoint" />
            <mxPoint x="360" y="440" as="targetPoint" />
            <Array as="points">
              <mxPoint x="350" y="490" />
            </Array>
          </mxGeometry>
        </mxCell>
        <mxCell id="r9DzthTGqOq0pMzTPkol-2" value="" style="verticalLabelPosition=bottom;html=1;verticalAlign=top;align=center;strokeColor=none;fillColor=#B5739D;shape=mxgraph.azure.laptop;pointerEvents=1;rotation=0;" vertex="1" parent="1">
          <mxGeometry x="330" y="400" width="100" height="58.15" as="geometry" />
        </mxCell>
        <mxCell id="r9DzthTGqOq0pMzTPkol-4" value="" style="shape=image;imageAspect=0;aspect=fixed;verticalLabelPosition=bottom;verticalAlign=top;image=data:image/png,iVBORw0KGgoAAAANSUhEUgAAAgAAAAIACAYAAAD0eNT6AAAACXBIWXMAAAsTAAALEwEAmpwYAAAKTWlDQ1BQaG90b3Nob3AgSUNDIHByb2ZpbGUAAHjanVN3WJP3Fj7f92UPVkLY8LGXbIEAIiOsCMgQWaIQkgBhhBASQMWFiApWFBURnEhVxILVCkidiOKgKLhnQYqIWotVXDjuH9yntX167+3t+9f7vOec5/zOec8PgBESJpHmomoAOVKFPDrYH49PSMTJvYACFUjgBCAQ5svCZwXFAADwA3l4fnSwP/wBr28AAgBw1S4kEsfh/4O6UCZXACCRAOAiEucLAZBSAMguVMgUAMgYALBTs2QKAJQAAGx5fEIiAKoNAOz0ST4FANipk9wXANiiHKkIAI0BAJkoRyQCQLsAYFWBUiwCwMIAoKxAIi4EwK4BgFm2MkcCgL0FAHaOWJAPQGAAgJlCLMwAIDgCAEMeE80DIEwDoDDSv+CpX3CFuEgBAMDLlc2XS9IzFLiV0Bp38vDg4iHiwmyxQmEXKRBmCeQinJebIxNI5wNMzgwAABr50cH+OD+Q5+bk4eZm52zv9MWi/mvwbyI+IfHf/ryMAgQAEE7P79pf5eXWA3DHAbB1v2upWwDaVgBo3/ldM9sJoFoK0Hr5i3k4/EAenqFQyDwdHAoLC+0lYqG9MOOLPv8z4W/gi372/EAe/tt68ABxmkCZrcCjg/1xYW52rlKO58sEQjFu9+cj/seFf/2OKdHiNLFcLBWK8ViJuFAiTcd5uVKRRCHJleIS6X8y8R+W/QmTdw0ArIZPwE62B7XLbMB+7gECiw5Y0nYAQH7zLYwaC5EAEGc0Mnn3AACTv/mPQCsBAM2XpOMAALzoGFyolBdMxggAAESggSqwQQcMwRSswA6cwR28wBcCYQZEQAwkwDwQQgbkgBwKoRiWQRlUwDrYBLWwAxqgEZrhELTBMTgN5+ASXIHrcBcGYBiewhi8hgkEQcgIE2EhOogRYo7YIs4IF5mOBCJhSDSSgKQg6YgUUSLFyHKkAqlCapFdSCPyLXIUOY1cQPqQ28ggMor8irxHMZSBslED1AJ1QLmoHxqKxqBz0XQ0D12AlqJr0Rq0Hj2AtqKn0UvodXQAfYqOY4DRMQ5mjNlhXIyHRWCJWBomxxZj5Vg1Vo81Yx1YN3YVG8CeYe8IJAKLgBPsCF6EEMJsgpCQR1hMWEOoJewjtBK6CFcJg4Qxwicik6hPtCV6EvnEeGI6sZBYRqwm7iEeIZ4lXicOE1+TSCQOyZLkTgohJZAySQtJa0jbSC2kU6Q+0hBpnEwm65Btyd7kCLKArCCXkbeQD5BPkvvJw+S3FDrFiOJMCaIkUqSUEko1ZT/lBKWfMkKZoKpRzame1AiqiDqfWkltoHZQL1OHqRM0dZolzZsWQ8ukLaPV0JppZ2n3aC/pdLoJ3YMeRZfQl9Jr6Afp5+mD9HcMDYYNg8dIYigZaxl7GacYtxkvmUymBdOXmchUMNcyG5lnmA+Yb1VYKvYqfBWRyhKVOpVWlX6V56pUVXNVP9V5qgtUq1UPq15WfaZGVbNQ46kJ1Bar1akdVbupNq7OUndSj1DPUV+jvl/9gvpjDbKGhUaghkijVGO3xhmNIRbGMmXxWELWclYD6yxrmE1iW7L57Ex2Bfsbdi97TFNDc6pmrGaRZp3mcc0BDsax4PA52ZxKziHODc57LQMtPy2x1mqtZq1+rTfaetq+2mLtcu0W7eva73VwnUCdLJ31Om0693UJuja6UbqFutt1z+o+02PreekJ9cr1Dund0Uf1bfSj9Rfq79bv0R83MDQINpAZbDE4Y/DMkGPoa5hpuNHwhOGoEctoupHEaKPRSaMnuCbuh2fjNXgXPmasbxxirDTeZdxrPGFiaTLbpMSkxeS+Kc2Ua5pmutG003TMzMgs3KzYrMnsjjnVnGueYb7ZvNv8jYWlRZzFSos2i8eW2pZ8ywWWTZb3rJhWPlZ5VvVW16xJ1lzrLOtt1ldsUBtXmwybOpvLtqitm63Edptt3xTiFI8p0in1U27aMez87ArsmuwG7Tn2YfYl9m32zx3MHBId1jt0O3xydHXMdmxwvOuk4TTDqcSpw+lXZxtnoXOd8zUXpkuQyxKXdpcXU22niqdun3rLleUa7rrStdP1o5u7m9yt2W3U3cw9xX2r+00umxvJXcM970H08PdY4nHM452nm6fC85DnL152Xlle+70eT7OcJp7WMG3I28Rb4L3Le2A6Pj1l+s7pAz7GPgKfep+Hvqa+It89viN+1n6Zfgf8nvs7+sv9j/i/4XnyFvFOBWABwQHlAb2BGoGzA2sDHwSZBKUHNQWNBbsGLww+FUIMCQ1ZH3KTb8AX8hv5YzPcZyya0RXKCJ0VWhv6MMwmTB7WEY6GzwjfEH5vpvlM6cy2CIjgR2yIuB9pGZkX+X0UKSoyqi7qUbRTdHF09yzWrORZ+2e9jvGPqYy5O9tqtnJ2Z6xqbFJsY+ybuIC4qriBeIf4RfGXEnQTJAntieTE2MQ9ieNzAudsmjOc5JpUlnRjruXcorkX5unOy553PFk1WZB8OIWYEpeyP+WDIEJQLxhP5aduTR0T8oSbhU9FvqKNolGxt7hKPJLmnVaV9jjdO31D+miGT0Z1xjMJT1IreZEZkrkj801WRNberM/ZcdktOZSclJyjUg1plrQr1zC3KLdPZisrkw3keeZtyhuTh8r35CP5c/PbFWyFTNGjtFKuUA4WTC+oK3hbGFt4uEi9SFrUM99m/ur5IwuCFny9kLBQuLCz2Lh4WfHgIr9FuxYji1MXdy4xXVK6ZHhp8NJ9y2jLspb9UOJYUlXyannc8o5Sg9KlpUMrglc0lamUycturvRauWMVYZVkVe9ql9VbVn8qF5VfrHCsqK74sEa45uJXTl/VfPV5bdra3kq3yu3rSOuk626s91m/r0q9akHV0IbwDa0b8Y3lG19tSt50oXpq9Y7NtM3KzQM1YTXtW8y2rNvyoTaj9nqdf13LVv2tq7e+2Sba1r/dd3vzDoMdFTve75TsvLUreFdrvUV99W7S7oLdjxpiG7q/5n7duEd3T8Wej3ulewf2Re/ranRvbNyvv7+yCW1SNo0eSDpw5ZuAb9qb7Zp3tXBaKg7CQeXBJ9+mfHvjUOihzsPcw83fmX+39QjrSHkr0jq/dawto22gPaG97+iMo50dXh1Hvrf/fu8x42N1xzWPV56gnSg98fnkgpPjp2Snnp1OPz3Umdx590z8mWtdUV29Z0PPnj8XdO5Mt1/3yfPe549d8Lxw9CL3Ytslt0utPa49R35w/eFIr1tv62X3y+1XPK509E3rO9Hv03/6asDVc9f41y5dn3m978bsG7duJt0cuCW69fh29u0XdwruTNxdeo94r/y+2v3qB/oP6n+0/rFlwG3g+GDAYM/DWQ/vDgmHnv6U/9OH4dJHzEfVI0YjjY+dHx8bDRq98mTOk+GnsqcTz8p+Vv9563Or59/94vtLz1j82PAL+YvPv655qfNy76uprzrHI8cfvM55PfGm/K3O233vuO+638e9H5ko/ED+UPPR+mPHp9BP9z7nfP78L/eE8/sl0p8zAAAAIGNIUk0AAHolAACAgwAA+f8AAIDpAAB1MAAA6mAAADqYAAAXb5JfxUYAACJESURBVHja7N15vG1nXd/xzzHzPEACSUggIQMziFVQkEEKiIAT80vUFlRAqiBSKpSXgloZFCoqRFoEFVQQSFtBBSwUsES0AipgTAKZSEIGMs8Juad/rH3lkuHmDmdPa7/fr9d+ncO9J9z1/J599vNdz3rWs9bW19cDAFbLtygBAAgAAIAAAAAIAACAAAAACAAAgAAAAAgAAIAAAAAIAACAAAAACAAAgAAAAAgAAIAAAAAIAACAAAAACAAAIAAAAAIAACAAAAACAAAgAAAAAgAAIAAAAAIAACAAAAACAAAgAAAAAgAAIAAAANtv12VvwNraml7k9hxV3a86sjp8i693q/aa/MwBtxGEr6xurm6szqvOrc6efD2z+lx1ifIyb+vr64rAjo+fy/4GEgCYOKx6XPVvqvtXD6gOmuK/d84kCHyu+nh1cnWTbkAAQAAQAJiu3apHTQb9x08G/Xm6svpY9aHqA9X5uggBAAFAAGBjfEv1PdWPVd/fMH2/iDZNwsA7q/dW1+k6BAAEAAGA7XdA9bzqudXxS3bs51VvrX6nukxXIgAgAAgA3LHjq1dWT6/2WPK23FD9QfWr1Vd0LQIAAoAAwK3dtfqVhqn+3UfWtmurN1a/lksDCAAIAAIAVe1Z/UL1H6u9R97W86uXV3+o2xEAEAAEgFX22Oq3qxNWrN1/Wr2gutRbAAEAAUAAWCX7Vm+pfnSFa3DRpP0f8XZAAGBWbAXMPD2s+qcVH/yrDq3+onpVtYu3BWAGwAzAmL2g+s3Gt8hvZ727+vGGbYjBDAACgAAwGrtWJ1Y/oRS36xMNGx1dqRQIAAgAAsAY7N+wM97jlOIOfaZ6QnWxUiAAIAAIAMts34ZFbt+pFNvs0w1bH9svAAGADWcRILOwZ/VBg/92e2jDjImFgYAAwNLZteFe90cqxQ55YvV6ZQAEAJbNG6snK8NOeUn1VGUANpI1AEzTj1TvUoYNcXl1v4anC0JlDQACgF5cTMdVn21Y/MfG+GBmUxAA2CAuATANu1RvM/hvuCdVT1MGQABgUb2geoQyTMVrqt2UARAAWDQHVL+kDFNzz+q5ygAIACyal1Z3VoapekW1hzIAAgCL4pDqRcowdUc23GEBIACwEF5Y7acMM+EyALBT3AbIRtmlOrs6Qilm5j7VKcqwutwGiBkAFsETDP4z9+NKAAgAzNu/U4KZe4YSADvKJQA2wj7VpdXuSjFzx1RnKsNqcgkAMwDM2yMN/nPzaCUABADm5TFKMNfwBSAAMBePUoK5eZgSADvCGgB21oHVJcLk3GxqWINxvVKsHmsAMAPAPN3H+2juv8P3VAZAAGDWjleCuTtWCQABgFk7TgkEAEAAQABg9g5TAkAAYNaOUoK521cJAAGAWfP0v/nbRwkAAQCDjz4AEACYOtPPAgAgAGDwYQ7sBgMIAMzcbkowd1cqASAAMGvXKMHcXaEEgACAAGAGAEAAQABYAVcpASAAIACsnnOVABAAmDXTz/P3z0oACADM2tlKMFfr1ReUARAAmLUvK8FcnZdZGEAAYA7OUoK5OkUJAAEAMwCr56+VABAAmIczlGCuPqIEwI5YW19f7m3E19bW9OL8nV8dpgwzd2F1eLVJKVbTsn9+YwaA5XeyEszt7N/gDwgAzM2nlWAuPqwEgADAPP1fJZi5S6qTlAEQAJinz1U3KMNMvau6ThkAAYB5uqH6qDLMzKbqt5UBEABYBO9Xgpn5SPZfAAQAFsQHq5uVYSberASAAMCiuKj6uDJM3ScnYQtAAGBhuAwwfa9UAmAj2AmQjXRo9ZVqd6WYik9Uj1IGNrMTIGYAWBQX5d50Z/+AAMBKskBtOt6VDZeADeQSANPwT9X9lWHDXFGd0PDwH/hXLgFgBoBF8zYl2FCvN/gDZgDMACyDfauzq4OVYqedVj0gWy1jBgAzACyBq6s3KsNOu7F6psEfEABYJr9dXa4MO+XVDQ9aAhAAWBpXVicqww77RPVaZQCmxRoApumQ6vTqAKXYLhdXD6nOVAq2xhoAzACwyAPZq5Rhu1xbPcHgD5gBMAOw7HarvlAdrxR3fEJXPaN6r1JgBgAzACy7m6pXKMM2+XWDP2AGwAzA2PxJwy1t3H59fmQyCwBmABAABIDROLBhi+AjleJW/rZ6dHWdUiAAMCsuATArl1cvcIZ7m3V5psEfEAAYsz+vflcZvsnzqrOUAZg1lwCYtT2qT1cPUoreUr1QGdhRLgEgALBsHtBw3XvPFa7BlyYh6BpvBwQA5sElAObhn6r/vOI1eIHBHzADYAZgVcPn/6kesYJtf0f1HG8BzAAgAAgAq+q46h+rvVaozRdV964u1f0IAMz7LAzm5fTqv6xYm3/Z4A+YATADQO1afba6/wq09YvVA6ubdTtmADADwKr7esOtcKvwSfYKgz8gAMA3/HV10sjbeHL1AV0NLAqXAFgUR1enNGwUNEaPqT6mm9lILgFgBoAxOLN640jb9ncGf0AAgNv3muqCEbbrt3QtIADA7buqev3I2vTV6r26FhAAYOv+W/W1EbXnrdWNuhUQAGDrrqn+64ja825dCiwidwGwiA6uzq72XfJ2nF4drzuZFncBYAaAsbl0JGfOJ+lKQACA7TOGAGDjH2BhuQTAwnZtdUZ1jyU9/uur/Rq2OoapcAkAMwCM8rOt+sgSH/8pBn9AAIAd89dLfOyf032AAAA75lNLfOz/qPsAAQB2zJnVtUt67KfqPkAAgB130ZIe9yW6DhAAYMddvKTHfYWuAwQA2HGblvS4r9R1gAAAO+6gJT3uy3UdIADAjjtwSY97k64DBADYMXeqDl3SY99P9wECAOyYBy3xse+r+wABAHbMg5f42A/SfYAAADvmB5f42I/XfYAAANvvyOo7l/j4T9CFgAAA2++pDY8EXlb30oXAIltb9udJr62t6cXx2a06o7rbErfhgurwhscaw1Qs++c3ZgDgts7+77bkbbhrdT9dCQgAsG12qf7TSNryWN0JCACwbV5QPXBEbfE7BiwkawBYJAdWp1WHjKhNj6k+pmuZBmsAMAPAWPzWyAb/qpfqVkAAgNv3nOpHR9iuJ1Q/rHuBReMSAIvg2Ooz1f4jbd8ZDXcEXKer2UguAWAGgGV25+rDIx78q46p3tVyb2wECACwYXav3j8ZIMfuh6uf1+WAAAD1xuoRK9TeX6uepdsBAYBVtVb9t+qFK9bu3ao/MhMALMQHsUWAzMFrql9Y4favV2+a1OAGb4eFd2B1UHXw5OuWr9fN9Y1kESArHgC+XH22YRX5Z6vPVRfr2oW0S/WG6kVKUZP367MaNj9i9u/FwxueOXFodUR1l+qwhuc43GXy94c2rFW5LV+d/IwAgAAwpwBwWw24sTq34farza9/rr5YnV3drOtn7pDqpOrhSvFNbqreUb1ScN24j4Xq6MngfFjDItNjbvG/D9qAf+fPqh8QABAAFisAbM3V1SnV5yeB4PPVFyZpnun4zskgd4JS3K4Lq1+t3l5dqxx36LDqqFu87lEdOfn+TjM4hldXrxIAEACWJwDcnkur06svVadOvp4+eV3hrbJD9mtY+f7TWXC6rS5u2BL5rSs8I7DnZBDfPJjfffLa8s/2WIDjfHL1QQEAAWD5A8DWXDQJAqdtEQo2B4RrvI1uZf/q+dWLJ2dqbL8bqz9vmDn5UMOlgjGdvR95iwH+yC0G+LssSTvuVp0nACAAjDsAbM15W4SC06svN6w/+Eqrd1nh+IY9/Z9fHeDXa8NcUX1kcrb5Vwv8vtpzMrgfvsXXuzYssDtyi9ceI+iTqydBd66fPwIAAsDiumGLMHDO5PWVyZ+dPfn+yiV/D921ekr17OqhfqVm4qzq5OrvGtaznDp5b23078J+feMWuAO3eB00GeC3HOwPa7hNblX8Q/Wt8z4IAQABYPnP7r6yRSA4b3KGd1HDNeDN3y/Cg2R2a1hB/e0NO/g9Igv7FsW1k/fOJZPXpZP3zDUNlxM222typr57tU/D2ozNszUH3mLA30VZb9d7q6cLACyzXZVg7g6YvO53Bz931SQMXLaV11WTgeCG6vLJB//VtxgENv/9LY9hj2rfyaBwWMP9z4dOzvCPqe5dHTcJASyevSf9c5xSzIS9GxAAmJn9Ji9AAICd5tYsAAEAAQCAbXC6EiAAAKyWyxoWWoIAALBC/lkJEAAABAAQAABWwClKgAAAYAYABAAAAQCWg62AAbbdNQ0bci3E546tgDEDADAbpy3K4A8CAMDs2AAIAQBgRWcAQAAAMAMAAgCAAAACAMDouASAAACwYi7NQ4AQAABWjul/BACAFWT6HwEAwAwACAAAAgAIAACj5BIAAgDAilk3A4AAALB6LqyuUgYEAIDVYvofAQBgBZn+RwAAEABAAABYBWcqAQIAwOo5WwkQAABWzzlKwNisra+vL3cD1tbWdSMwRTdUe1ebFu3Alv3zGzMAAIvsvEUc/EEAAJgu0/8IAAACAAgAAAIACAAAo/QVJUAAABAAQAAAWAEuASAAAAgAIAAAjN3l1VXKgAAA4OwfBAAAAQAEAAABAAQAgKV3vhIgAACsnguVAAEAQAAAAQBgBVykBAgAAGYAQAAAMAMAAgDA2FxdXasMCAAAzv5BAAAYuUuUAAEAYPVcpgQIAAACAAgAACvgUiVAAAAwAwACAIAAAAIAwBhdrgQIAACr5yolQAAAWD3XKAECAIAAAAIAgAAAAgCAAAACAIAAAAIAwHK6TgkQAABWz9eVAAEAQAAAAQBAAAABAEAAAAEAQAAAAQBgOW1SAgQAgNWzmxIgAACsnj2UAAEAYPXsqQQIAABmAEAAAFgB+ygBAgDA6rmLEiAAAAgAIAAACAAgAAAIACAAAIzCsUqAAACweu6jBIzZ2vr6+nI3YG1tXTcCU3BDtW8L/FCgZf/8xgwAwCLaozpaGRAAAFbPQ5QAAQBg9TxSCRAAAFbPo5SAsbIIEGDrjqjOV4adcufqng23Vm5+HdOwzmL/apfqoC1+/tqGRZiXVzdWZ1dfqk6ffP2X6pJ5N2rpx08BAGCrXlT9ljJss4Oqh1ffVj2s+vbqgCn8O2dUn6r+b/UX1bkCgAAAsJFOngxk3L47VT9UPbV6dLX7jP/9mych4K3Vhyb/WwAQAAB27nO+Yfr6TKW41Zn+07YY9HddkOM6p3pb9ZamfJlAABAAgPH7leoXlaGqh1bPq55R7bXAx3l59frqTQ1rCgQAAQBgu11W3aO6ckXbv3f1Y9Xzqwcu2bGfX/1S9XsNszkCwITbAAHu2EHVz6xguw+fnEFfUJ24hIP/5jb894a1HPf0VjYDALC9LqqOr65YgbbepXpZ9VMNz0MYi69VP1n9TzMAZgAAttWh1WtH3sa9qlc03G//kpEN/jXsR/A/qv9q/DMDALA9NlWPaLj/fGyeNQk4R61IX/5x9e+qm1Z1BkAAANg+p1Xf0XguBdy14ba5J65gX36o4TbGa1YxALgEALB9jp+cPY7h8/Op1edXdPCv+t7qL6s9V7HxAgDA9vu+6jVLfPz7VX9Qvbfhuvgq++5JLdYEAAC2xcuqX1/SAe8LDff1M3h69QYBAIBt9dKW586AXauXV/+71Vnotz1+rnruKjXYIkCAnffmhqcG3rygx/eA6u0NT+jj9l3fsMDz89vywxYBAvDC6s8arq0vkj2rV1d/b/Df5nr9cSuyKFAAANgY39ewP8A9FuR4Hj85k/3Fajfds83uV71OAABge9y/+lzDorJ5uXv1pw33uB+rS3bIz1SPHXsjrQEAmI7fa9hOd1ZPEDywYZHfz7ai97VvsH9pWDtxuzsFWgMAwG15bnVq9Zwpf9bu07CC/fSGWxMN/hvjXg1rO8wAmAEA2GGfrX61+l8NzxPYCAdMBqgXV4co8VRc3rDz48VjnAEQAABm5/TqTdX7qwt24L//luqRDQ/uefokBDBdb67+gwAgAABshE3V31Z/UX2m+ofqq7fzs3dveALhdzfs2X+48s3U9Q13dlwoAAgAANNwZXXp5FV18OS1v9LM3WuqVwgAAgAAqxfO7t6wJmA0AcBdAACwdfs33M0xKmYAAOCOnV6dUK2bAQCA1XFc9dAxNUgAAIBt8+NjaoxLAACwba6oDquuK5cAAGBVHNCwJ8Mo7Ko/Gan16ozqi9U51fnVuZPXV6sbJz9z+W38twdNvu5VHVXdbfI6qjqmelDuzYZV9W+rD4+hIS4BMBZnV39V/X31T9UXqqum9babBIFvrR5cPbr69moX3QCj94+TkwAbAQkAzMkN1UcnSfzDDU9dm6eDJmcGj6+eXB2qi2CU1hvWAVwoAAgAzPYX7+TqndWfVpct6HHuPgkBz50EAmttYFx+pPpjiwBh+i6rfq3hPtyHV29d4MG/hvUF76++r+EhIq9pWD0MjMO/GUMjzACwyE6dDPzvaZjyX2b7VD9RvbRhQSGwvD5ePdolAAGAjXdB9crqD6ubRta2vSch4OXVnroaltKl1Z0EAAGAjXN99brJ67qRt/Xw6rXVj+p2WEpHr6+vn7XMDbAGgEXxVw231rxqBQb/GvYl+LHqmX3j+e/A8rjPsjdAAGDerm7YX/txzf9Wvnl4T3Xv6iPeCrBUjhIAYMd9qnpAw7X+VXZRwx0Dr65u9raApXCEAAA75sTqe6ozlaImA/+rqmc33EYILLbDBQDYPl+vfrL6aQPdbXp3w+WQK5UCFtrS384rADBL11XPqN6mFFv1ieoJLfZmR7Dq7iIAwLa5unpMdZJSbJOTG9YFXKcUsJD2FgDgjl1fPan6G6XYLp+unpaFgSAACAAsoa9XT2+Y1mb7/Xn1MmWAhbOXAABb95LqA8qwU95YvU8ZYKEs/VbetgJmmt47Oftn5x1SfaE6VClgIdy8vr6+qxkAuLXTq+cow4a5uHquMsDCWPrbmAUAppKMGx59e7VSbKgPNsyqAPN3rQAAt3Zi9UllmIqXN75HJMMyWvpbdAUANtoVDXvaMx1frn5PGUAAEABYNL9ZfU0Zpup12UYZ5m3pL3EKAGyki6s3KMPUnVW9Sxlgrs4XAOAb3lxdpQwz4TIAzNe5AgAMbs5Dfmbp5OoUZQABQABg3v6yOk8ZZuoPlAAEAAGAeft9JZi59ygBzM2Zy94AWwGzEa6pDs7K9Hk4ozpaGWCm1quD1tfXrzADwKr7hMF/bv6PEsDMfblhz5OlJgCwET6qBHMNX8BsfW4MjRAA2AgfV4K5+ZQSwMz9gwAAdflYfhmW1JnV9coAM/UxAQDqn6tNyjA3mxquRwKzcVH1dwIA1GlKMHdfUgKYmY+M5aRHAGBnna4EAgCskA+NpSECAALA8vuqEsBMXF/9xVgas6v+ZCedowRzd7USLIWvVX9ffaZh1ubMhic7XnmLnzug2n/y9YDqvtUDqvtV9652U8q5+V/VZQIAGHwWxTVKsJDWJwP+SdX/qE7dxv/ulgPMB7f4frfqIdWTq++v7qXMM/WOMTXGVsDsrHtUZyvDXP3QZJBhMVxbvbP67eqLU/63jqueWr2gOlLpp+rcyefdzf+a8JZ8/LQGAGef+oCNsWlyhnhM9fwZDP41rMF5TXXP6tnVZ3XD1PzuloP/GAgA7CyXAOZvTQnm7kvVw6rnVBfO4d+/qfqj6tuqx1R/q0s21OXV74ytUQIAG/HBw3ztrwRz9b7JwPvpBTmej1XfWT2zETyydkH8TiN4+I8AwEbbRwkEgBX236und+uV/PO2Xr2n4a6Bl1VX6aoddnX1m2NsmACAACAAsGP+oOFa/yKvBLuh+vWGWwn/TJftkNdXlwgAIAAsogOUYOZOrn6q5dkS9ivVD1RPqc7Tfdvs1EkAGCUBAAFg+R2hBDN1YcO0/41LeOwnVfev/lQ33qH16qcbZlEEALgNpp/n7z5KMFMvWvKz6MuqZzTcseAuntv3rkby2F8BgGk5SgkEgBXykYbFdWPwjurBDY/05pt9ufqZsTdSAGBnHaMEc3VEdaAyzMR69dKRten06rsmwYbBDQ0zJFeMvaECAAKAs3+2zZ9Xnx9hu66onli9RRfXJOR9ZhUaKgAgACy3hynBzPz6iNv29eqFDYveVnlzr99vhDv+CQBMyz2VYK6+Vwlm4qzqr1egnSdWj60uXsE+/mD1k6vUYAGAnXVEdRdlmIs7V9+uDDPxnhZ7w5+N9InJ++pvVqh/P9Vwa+fXBQDYPt+lBHPxeL/DM/O+FWvv2dUjqlevwKD4t9WTq+tW7U3twwMBYHk9QQlm4rLqcyvY7q9Xr6oeWZ0x4mD36EkfrxwBgI3wcCWYuTtVP6wMM/GJRvYc+O10cnWv6sWN56FC69UvNEz7X7eqHSsAsBG+tdpDGWbq2dVeyjATn1KCbqreNPld/+CSt+WS6lnV61qddR0CAFOzR/UoZZiZteoFyjAzX1SCf/Xlhuvl39tw7XzZfKC6X+PZzVEAYCE8RQlm5jHVCcowM7bKvbUPVw+tnlT9/RIc7znVj1XfX12g+yZnEuvryz0Dsra2tq4bF8JF1eGt9rXSWZ7FPEkZZuKaar9WfKr4jj6GG3YSfNEknK4t2MD/murtTeHpjUs/fgoAbKBHVx9Xhql6SPVpZZiZ0zLbsj1OaNhN8MerA+Z0DOsN6zZ+v3pnU3xs87KPny4BsJFcBpi+X1GCmbpQCbbLqZOZgLs1TLn/SfW1Gf7br6qOq767+r1pDv5jYAaAjXRRdaRfuql5ZGZYZu191dOUYadPNL+tYeOqh1X3b9hBdGdsqr5UfXLyO/Hx6ryZTzUs+fi5q/cmG+jQhnvT360UU/GrSjBzlyrBTttU/b/Ja7ODJ0Hg/pPZgv2rfRvWW+w7+ZkbqmurKycnFWc1PL74tMngf4PSCgAslhcKAFPx7Gy4NA/XL/LBLfEZ6KUNGyx9wltsfqwBYKM9fJLq2TgHVL+hDHPhLBMBALbDTyjBhnpZnri4sAFgfX19bi8QAFg0z2m4xsfOO776eWWYmzUlQACAbbdv9RJl2Gm7N6yn8JyF+b6XQQCA7fAz1YHKsFN+qeHhKwgAIACwNPbPA2t2xiMbHleKAAACAEvn55rfdqDL7JDqHX4/F8I+SoAAADs2kP1nZdgue1QnVUcrxULYXwkQAGDHvLhhJTt3bK3h4SU2/FkcRyoBAgDsmN2qX1OGbfIfs+/8ojk8twIiAMAOe0r1TGXYqmdVr1WGhbNHNmFCAICdcmKmU2/PQ6q3O9NcWN63CACwEw6chACD3K3r8u5qT6UQAEAAYKyeWD1fGb7JW6t7KIMAAAIAY/eG6r7KUNVzq6crw8I7RgkQAGDn7VX9caa8j63e5O2wFO6tBAgAsDEeUP2XFa/BidllTgCAOVpb9mdKr62teSj2ctpUPbr65Aq2/d83rPpneRxYXXFbf7Hsn6GYAYB5vPfe1nBJYJUcWv2G7l8691ICBADYOMe1es8K+MXqYF2/dE5QAgQA2Fj/qbr/irT1vrkNcpn7DgQA2EC7tjpT4r9c7aLLzQCAAACDxzU8L2DMvqv6IV29tB6oBIyNuwBYFGc23G51w0jb99Hqe3TzUrtzdckt/9BdAJgBgJ1zdPWSkbbtOwz+o/BtSoAAANPx8uquI2zXz+raUXiwEiAAwHTsV71sZG06rHqarh2FBykBAgBMz081XGsdi+dVu+tWMwAgAMDW7VP93Ija80xdOhrHNmwJDAIATMnzq31H0I7jcv/4mKzlMgACAEzVwdVTR9COH9CVo+MyAAIATNmzR9CGH9SNo/OtSsBY2AiIRbVeHVOdtaTHv2d1VcNWx4zHKdV9vumNaiMgzADAxma7hi2Cl9W9Df6jdHy1tzIgAMB0ffcSH7up4nHaJQsBEQBg6h62xMfu4THjZSEgAgBM2dEt73Sr2//GS7hDAIAZOHRJj/tOum60PBQIAQBm4JAlPe4DdN1o3bfaQxkQAMB79Lbsr+tGa/eGuzzAhytM0WVLetwH6rpRu58SIADAdF3ud4sFdLwSIADA9FxSXbSkx36V7hs1lwAQAGCK/mGJj/1q3Tdq91ICBACYns8u8bFfpvtG7diGXQFBAIAp+J9LfOyn6b5R27NhoyoQAGCDfaX6myU+/lN14ei5DIAAAFPwvoZHAi+rf9GFo3esEiAAwMa6qXrjkrfho0seYLhjRygBAgBs/Nn/uUvehguqL+jKUTtcCRAAYOPcXL1uJG35K905aocpAQIAbJwTq38cUVs26dLRcgmApba2vr7clynX1tZcZx2Pyxu2WL14RG36aPU9unaUrqr2X/bPUMwAwCL42ZEN/lW/oVtHa7/JCwQA2Al/VL1zhO36y+oDune0DlICBADYcV+qfnrE7XtxdZ1uHqXdlQABAHbM16rHV1eOuI1nVM/OvgBjtIcSIADA9ruxespkgBy7k6o36HIBAAQAqJdUn1yh9r6i+hPdLgCAAMAqe2n15hVr800NlwJ+V/ePhjUALK1dlYA5eHmrOx2+qWHB46nVa51BLoUrGtaoXFHdcIu/u1p5WFZj2AjoUdUTqvtW96nunpmNRXVz9fPVm5Siqgc3XBI4Xilmbr26sPpqdV51/uR13uTPzm14nsOFd/h/ZCMgBIC5BYBb/tHe1b23eB1THT35eogun+tZ1DOrDynFN9mz4TbBl1f7K8eG2TQZ0M/c4nXWFt9/teGSzM4nCQEAAWBhAsDW7DOZITiqOrK6R/XA6kHZ13ua/qb69w3T3ty2u1SvrJ4zCbHcsYtuMahv+f3ZDXeZTH8qQQBAAFiKALA1B1fHVcdWJ0y+Hjd5HeCtskOualj5/pY8FGdbHdKwJfLzWu0Zq/WGKfizJoP55q+bX2e2IJsrCQAIAMsfALbm0EkQOH6LULA5IOzjbXQrVzasdP/NhqlWtt/u1RMbZk6+t9ptZO27oW9ccz/zFoP75tcNS5FUBAAEgFEHgK05YotQcFx1z+puDZcYVu154adVb58M/lf49dowB1SPq55UPXYJ3ldXNCyiO3cSAM/ZYrA/d/L9RaOZqhAAEABWNgBszR5bhIGj+sbag7s1rEU4suVf+HVB9f7qXdWn/UrNxD2q76q+o2Gh6wmT99Y0fhluri6pLp18veX3lzRs53zp5L1wTnXtKnWGAIAAIADszNndkVsEgiMmZ3iHNlwD3vz9XgtwrDc1bNv7/xp28PtkFvYtir0n7507TV4HT94z+7T1zWour66fDNpXNFxX3/z91yZ/jwCAACAAzNF+kzBw0FZe+00Ggj2qAycf/PveYhDY/Pdb2rzBydXVNQ3TthdNXhdMBv1TqtPboFunQAAAAQAAmDE75gGAAAAACAAAgAAAAAgAAIAAAAAIAACAAAAACAAAgAAAAAgAAIAAAAAIAACAAAAACAAAgAAAAAgAAIAAAAACAAAgAAAAAgAAIAAAAAIAACAAAAACAAAgAAAAAgAAIAAAAAIAACAAAAACAAAgAAAAAgAAIAAAAAIAAAgAAIAAAAAIAACAAAAACAAAgAAAAAgAAIAAAAAIAACAAAAACAAAgAAAAAgAAIAAAAAIAACAAAAACAAAIAAAAAIAACAAAAACAAAgAAAAAgAAIAAAAAIAACAAAAACAAAgAAAAAgAAIAAAAAIAACAAAAACAAAgAACAAAAACAAAgAAAAAgAAIAAAAAIAACAAAAACAAAgAAAAAgAAIAAAAAIAACAAAAACAAAgAAAAAgAAIAAAAD8/wEAhIGXC2Jo564AAAAASUVORK5CYII=;rotation=-15;imageBackground=none;imageBorder=none;" vertex="1" parent="1">
          <mxGeometry x="549.88" y="405" width="60" height="60" as="geometry" />
        </mxCell>
        <mxCell id="r9DzthTGqOq0pMzTPkol-6" value="" style="shape=image;imageAspect=0;aspect=fixed;verticalLabelPosition=bottom;verticalAlign=top;image=data:image/png,iVBORw0KGgoAAAANSUhEUgAAAgAAAAIACAYAAAD0eNT6AAAACXBIWXMAAAsTAAALEwEAmpwYAAAKTWlDQ1BQaG90b3Nob3AgSUNDIHByb2ZpbGUAAHjanVN3WJP3Fj7f92UPVkLY8LGXbIEAIiOsCMgQWaIQkgBhhBASQMWFiApWFBURnEhVxILVCkidiOKgKLhnQYqIWotVXDjuH9yntX167+3t+9f7vOec5/zOec8PgBESJpHmomoAOVKFPDrYH49PSMTJvYACFUjgBCAQ5svCZwXFAADwA3l4fnSwP/wBr28AAgBw1S4kEsfh/4O6UCZXACCRAOAiEucLAZBSAMguVMgUAMgYALBTs2QKAJQAAGx5fEIiAKoNAOz0ST4FANipk9wXANiiHKkIAI0BAJkoRyQCQLsAYFWBUiwCwMIAoKxAIi4EwK4BgFm2MkcCgL0FAHaOWJAPQGAAgJlCLMwAIDgCAEMeE80DIEwDoDDSv+CpX3CFuEgBAMDLlc2XS9IzFLiV0Bp38vDg4iHiwmyxQmEXKRBmCeQinJebIxNI5wNMzgwAABr50cH+OD+Q5+bk4eZm52zv9MWi/mvwbyI+IfHf/ryMAgQAEE7P79pf5eXWA3DHAbB1v2upWwDaVgBo3/ldM9sJoFoK0Hr5i3k4/EAenqFQyDwdHAoLC+0lYqG9MOOLPv8z4W/gi372/EAe/tt68ABxmkCZrcCjg/1xYW52rlKO58sEQjFu9+cj/seFf/2OKdHiNLFcLBWK8ViJuFAiTcd5uVKRRCHJleIS6X8y8R+W/QmTdw0ArIZPwE62B7XLbMB+7gECiw5Y0nYAQH7zLYwaC5EAEGc0Mnn3AACTv/mPQCsBAM2XpOMAALzoGFyolBdMxggAAESggSqwQQcMwRSswA6cwR28wBcCYQZEQAwkwDwQQgbkgBwKoRiWQRlUwDrYBLWwAxqgEZrhELTBMTgN5+ASXIHrcBcGYBiewhi8hgkEQcgIE2EhOogRYo7YIs4IF5mOBCJhSDSSgKQg6YgUUSLFyHKkAqlCapFdSCPyLXIUOY1cQPqQ28ggMor8irxHMZSBslED1AJ1QLmoHxqKxqBz0XQ0D12AlqJr0Rq0Hj2AtqKn0UvodXQAfYqOY4DRMQ5mjNlhXIyHRWCJWBomxxZj5Vg1Vo81Yx1YN3YVG8CeYe8IJAKLgBPsCF6EEMJsgpCQR1hMWEOoJewjtBK6CFcJg4Qxwicik6hPtCV6EvnEeGI6sZBYRqwm7iEeIZ4lXicOE1+TSCQOyZLkTgohJZAySQtJa0jbSC2kU6Q+0hBpnEwm65Btyd7kCLKArCCXkbeQD5BPkvvJw+S3FDrFiOJMCaIkUqSUEko1ZT/lBKWfMkKZoKpRzame1AiqiDqfWkltoHZQL1OHqRM0dZolzZsWQ8ukLaPV0JppZ2n3aC/pdLoJ3YMeRZfQl9Jr6Afp5+mD9HcMDYYNg8dIYigZaxl7GacYtxkvmUymBdOXmchUMNcyG5lnmA+Yb1VYKvYqfBWRyhKVOpVWlX6V56pUVXNVP9V5qgtUq1UPq15WfaZGVbNQ46kJ1Bar1akdVbupNq7OUndSj1DPUV+jvl/9gvpjDbKGhUaghkijVGO3xhmNIRbGMmXxWELWclYD6yxrmE1iW7L57Ex2Bfsbdi97TFNDc6pmrGaRZp3mcc0BDsax4PA52ZxKziHODc57LQMtPy2x1mqtZq1+rTfaetq+2mLtcu0W7eva73VwnUCdLJ31Om0693UJuja6UbqFutt1z+o+02PreekJ9cr1Dund0Uf1bfSj9Rfq79bv0R83MDQINpAZbDE4Y/DMkGPoa5hpuNHwhOGoEctoupHEaKPRSaMnuCbuh2fjNXgXPmasbxxirDTeZdxrPGFiaTLbpMSkxeS+Kc2Ua5pmutG003TMzMgs3KzYrMnsjjnVnGueYb7ZvNv8jYWlRZzFSos2i8eW2pZ8ywWWTZb3rJhWPlZ5VvVW16xJ1lzrLOtt1ldsUBtXmwybOpvLtqitm63Edptt3xTiFI8p0in1U27aMez87ArsmuwG7Tn2YfYl9m32zx3MHBId1jt0O3xydHXMdmxwvOuk4TTDqcSpw+lXZxtnoXOd8zUXpkuQyxKXdpcXU22niqdun3rLleUa7rrStdP1o5u7m9yt2W3U3cw9xX2r+00umxvJXcM970H08PdY4nHM452nm6fC85DnL152Xlle+70eT7OcJp7WMG3I28Rb4L3Le2A6Pj1l+s7pAz7GPgKfep+Hvqa+It89viN+1n6Zfgf8nvs7+sv9j/i/4XnyFvFOBWABwQHlAb2BGoGzA2sDHwSZBKUHNQWNBbsGLww+FUIMCQ1ZH3KTb8AX8hv5YzPcZyya0RXKCJ0VWhv6MMwmTB7WEY6GzwjfEH5vpvlM6cy2CIjgR2yIuB9pGZkX+X0UKSoyqi7qUbRTdHF09yzWrORZ+2e9jvGPqYy5O9tqtnJ2Z6xqbFJsY+ybuIC4qriBeIf4RfGXEnQTJAntieTE2MQ9ieNzAudsmjOc5JpUlnRjruXcorkX5unOy553PFk1WZB8OIWYEpeyP+WDIEJQLxhP5aduTR0T8oSbhU9FvqKNolGxt7hKPJLmnVaV9jjdO31D+miGT0Z1xjMJT1IreZEZkrkj801WRNberM/ZcdktOZSclJyjUg1plrQr1zC3KLdPZisrkw3keeZtyhuTh8r35CP5c/PbFWyFTNGjtFKuUA4WTC+oK3hbGFt4uEi9SFrUM99m/ur5IwuCFny9kLBQuLCz2Lh4WfHgIr9FuxYji1MXdy4xXVK6ZHhp8NJ9y2jLspb9UOJYUlXyannc8o5Sg9KlpUMrglc0lamUycturvRauWMVYZVkVe9ql9VbVn8qF5VfrHCsqK74sEa45uJXTl/VfPV5bdra3kq3yu3rSOuk626s91m/r0q9akHV0IbwDa0b8Y3lG19tSt50oXpq9Y7NtM3KzQM1YTXtW8y2rNvyoTaj9nqdf13LVv2tq7e+2Sba1r/dd3vzDoMdFTve75TsvLUreFdrvUV99W7S7oLdjxpiG7q/5n7duEd3T8Wej3ulewf2Re/ranRvbNyvv7+yCW1SNo0eSDpw5ZuAb9qb7Zp3tXBaKg7CQeXBJ9+mfHvjUOihzsPcw83fmX+39QjrSHkr0jq/dawto22gPaG97+iMo50dXh1Hvrf/fu8x42N1xzWPV56gnSg98fnkgpPjp2Snnp1OPz3Umdx590z8mWtdUV29Z0PPnj8XdO5Mt1/3yfPe549d8Lxw9CL3Ytslt0utPa49R35w/eFIr1tv62X3y+1XPK509E3rO9Hv03/6asDVc9f41y5dn3m978bsG7duJt0cuCW69fh29u0XdwruTNxdeo94r/y+2v3qB/oP6n+0/rFlwG3g+GDAYM/DWQ/vDgmHnv6U/9OH4dJHzEfVI0YjjY+dHx8bDRq98mTOk+GnsqcTz8p+Vv9563Or59/94vtLz1j82PAL+YvPv655qfNy76uprzrHI8cfvM55PfGm/K3O233vuO+638e9H5ko/ED+UPPR+mPHp9BP9z7nfP78L/eE8/sl0p8zAAAAIGNIUk0AAHolAACAgwAA+f8AAIDpAAB1MAAA6mAAADqYAAAXb5JfxUYAACJESURBVHja7N15vG1nXd/xzzHzPEACSUggIQMziFVQkEEKiIAT80vUFlRAqiBSKpSXgloZFCoqRFoEFVQQSFtBBSwUsES0AipgTAKZSEIGMs8Juad/rH3lkuHmDmdPa7/fr9d+ncO9J9z1/J599vNdz3rWs9bW19cDAFbLtygBAAgAAIAAAAAIAACAAAAACAAAgAAAAAgAAIAAAAAIAACAAAAACAAAgAAAAAgAAIAAAAAIAACAAAAACAAAIAAAAAIAACAAAAACAAAgAAAAAgAAIAAAAAIAACAAAAACAAAgAAAAAgAAIAAAANtv12VvwNraml7k9hxV3a86sjp8i693q/aa/MwBtxGEr6xurm6szqvOrc6efD2z+lx1ifIyb+vr64rAjo+fy/4GEgCYOKx6XPVvqvtXD6gOmuK/d84kCHyu+nh1cnWTbkAAQAAQAJiu3apHTQb9x08G/Xm6svpY9aHqA9X5uggBAAFAAGBjfEv1PdWPVd/fMH2/iDZNwsA7q/dW1+k6BAAEAAGA7XdA9bzqudXxS3bs51VvrX6nukxXIgAgAAgA3LHjq1dWT6/2WPK23FD9QfWr1Vd0LQIAAoAAwK3dtfqVhqn+3UfWtmurN1a/lksDCAAIAAIAVe1Z/UL1H6u9R97W86uXV3+o2xEAEAAEgFX22Oq3qxNWrN1/Wr2gutRbAAEAAUAAWCX7Vm+pfnSFa3DRpP0f8XZAAGBWbAXMPD2s+qcVH/yrDq3+onpVtYu3BWAGwAzAmL2g+s3Gt8hvZ727+vGGbYjBDAACgAAwGrtWJ1Y/oRS36xMNGx1dqRQIAAgAAsAY7N+wM97jlOIOfaZ6QnWxUiAAIAAIAMts34ZFbt+pFNvs0w1bH9svAAGADWcRILOwZ/VBg/92e2jDjImFgYAAwNLZteFe90cqxQ55YvV6ZQAEAJbNG6snK8NOeUn1VGUANpI1AEzTj1TvUoYNcXl1v4anC0JlDQACgF5cTMdVn21Y/MfG+GBmUxAA2CAuATANu1RvM/hvuCdVT1MGQABgUb2geoQyTMVrqt2UARAAWDQHVL+kDFNzz+q5ygAIACyal1Z3VoapekW1hzIAAgCL4pDqRcowdUc23GEBIACwEF5Y7acMM+EyALBT3AbIRtmlOrs6Qilm5j7VKcqwutwGiBkAFsETDP4z9+NKAAgAzNu/U4KZe4YSADvKJQA2wj7VpdXuSjFzx1RnKsNqcgkAMwDM2yMN/nPzaCUABADm5TFKMNfwBSAAMBePUoK5eZgSADvCGgB21oHVJcLk3GxqWINxvVKsHmsAMAPAPN3H+2juv8P3VAZAAGDWjleCuTtWCQABgFk7TgkEAEAAQABg9g5TAkAAYNaOUoK521cJAAGAWfP0v/nbRwkAAQCDjz4AEACYOtPPAgAgAGDwYQ7sBgMIAMzcbkowd1cqASAAMGvXKMHcXaEEgACAAGAGAEAAQABYAVcpASAAIACsnnOVABAAmDXTz/P3z0oACADM2tlKMFfr1ReUARAAmLUvK8FcnZdZGEAAYA7OUoK5OkUJAAEAMwCr56+VABAAmIczlGCuPqIEwI5YW19f7m3E19bW9OL8nV8dpgwzd2F1eLVJKVbTsn9+YwaA5XeyEszt7N/gDwgAzM2nlWAuPqwEgADAPP1fJZi5S6qTlAEQAJinz1U3KMNMvau6ThkAAYB5uqH6qDLMzKbqt5UBEABYBO9Xgpn5SPZfAAQAFsQHq5uVYSberASAAMCiuKj6uDJM3ScnYQtAAGBhuAwwfa9UAmAj2AmQjXRo9ZVqd6WYik9Uj1IGNrMTIGYAWBQX5d50Z/+AAMBKskBtOt6VDZeADeQSANPwT9X9lWHDXFGd0PDwH/hXLgFgBoBF8zYl2FCvN/gDZgDMACyDfauzq4OVYqedVj0gWy1jBgAzACyBq6s3KsNOu7F6psEfEABYJr9dXa4MO+XVDQ9aAhAAWBpXVicqww77RPVaZQCmxRoApumQ6vTqAKXYLhdXD6nOVAq2xhoAzACwyAPZq5Rhu1xbPcHgD5gBMAOw7HarvlAdrxR3fEJXPaN6r1JgBgAzACy7m6pXKMM2+XWDP2AGwAzA2PxJwy1t3H59fmQyCwBmABAABIDROLBhi+AjleJW/rZ6dHWdUiAAMCsuATArl1cvcIZ7m3V5psEfEAAYsz+vflcZvsnzqrOUAZg1lwCYtT2qT1cPUoreUr1QGdhRLgEgALBsHtBw3XvPFa7BlyYh6BpvBwQA5sElAObhn6r/vOI1eIHBHzADYAZgVcPn/6kesYJtf0f1HG8BzAAgAAgAq+q46h+rvVaozRdV964u1f0IAMz7LAzm5fTqv6xYm3/Z4A+YATADQO1afba6/wq09YvVA6ubdTtmADADwKr7esOtcKvwSfYKgz8gAMA3/HV10sjbeHL1AV0NLAqXAFgUR1enNGwUNEaPqT6mm9lILgFgBoAxOLN640jb9ncGf0AAgNv3muqCEbbrt3QtIADA7buqev3I2vTV6r26FhAAYOv+W/W1EbXnrdWNuhUQAGDrrqn+64ja825dCiwidwGwiA6uzq72XfJ2nF4drzuZFncBYAaAsbl0JGfOJ+lKQACA7TOGAGDjH2BhuQTAwnZtdUZ1jyU9/uur/Rq2OoapcAkAMwCM8rOt+sgSH/8pBn9AAIAd89dLfOyf032AAAA75lNLfOz/qPsAAQB2zJnVtUt67KfqPkAAgB130ZIe9yW6DhAAYMddvKTHfYWuAwQA2HGblvS4r9R1gAAAO+6gJT3uy3UdIADAjjtwSY97k64DBADYMXeqDl3SY99P9wECAOyYBy3xse+r+wABAHbMg5f42A/SfYAAADvmB5f42I/XfYAAANvvyOo7l/j4T9CFgAAA2++pDY8EXlb30oXAIltb9udJr62t6cXx2a06o7rbErfhgurwhscaw1Qs++c3ZgDgts7+77bkbbhrdT9dCQgAsG12qf7TSNryWN0JCACwbV5QPXBEbfE7BiwkawBYJAdWp1WHjKhNj6k+pmuZBmsAMAPAWPzWyAb/qpfqVkAAgNv3nOpHR9iuJ1Q/rHuBReMSAIvg2Ooz1f4jbd8ZDXcEXKer2UguAWAGgGV25+rDIx78q46p3tVyb2wECACwYXav3j8ZIMfuh6uf1+WAAAD1xuoRK9TeX6uepdsBAYBVtVb9t+qFK9bu3ao/MhMALMQHsUWAzMFrql9Y4favV2+a1OAGb4eFd2B1UHXw5OuWr9fN9Y1kESArHgC+XH22YRX5Z6vPVRfr2oW0S/WG6kVKUZP367MaNj9i9u/FwxueOXFodUR1l+qwhuc43GXy94c2rFW5LV+d/IwAgAAwpwBwWw24sTq34farza9/rr5YnV3drOtn7pDqpOrhSvFNbqreUb1ScN24j4Xq6MngfFjDItNjbvG/D9qAf+fPqh8QABAAFisAbM3V1SnV5yeB4PPVFyZpnun4zskgd4JS3K4Lq1+t3l5dqxx36LDqqFu87lEdOfn+TjM4hldXrxIAEACWJwDcnkur06svVadOvp4+eV3hrbJD9mtY+f7TWXC6rS5u2BL5rSs8I7DnZBDfPJjfffLa8s/2WIDjfHL1QQEAAWD5A8DWXDQJAqdtEQo2B4RrvI1uZf/q+dWLJ2dqbL8bqz9vmDn5UMOlgjGdvR95iwH+yC0G+LssSTvuVp0nACAAjDsAbM15W4SC06svN6w/+Eqrd1nh+IY9/Z9fHeDXa8NcUX1kcrb5Vwv8vtpzMrgfvsXXuzYssDtyi9ceI+iTqydBd66fPwIAAsDiumGLMHDO5PWVyZ+dPfn+yiV/D921ekr17OqhfqVm4qzq5OrvGtaznDp5b23078J+feMWuAO3eB00GeC3HOwPa7hNblX8Q/Wt8z4IAQABYPnP7r6yRSA4b3KGd1HDNeDN3y/Cg2R2a1hB/e0NO/g9Igv7FsW1k/fOJZPXpZP3zDUNlxM222typr57tU/D2ozNszUH3mLA30VZb9d7q6cLACyzXZVg7g6YvO53Bz931SQMXLaV11WTgeCG6vLJB//VtxgENv/9LY9hj2rfyaBwWMP9z4dOzvCPqe5dHTcJASyevSf9c5xSzIS9GxAAmJn9Ji9AAICd5tYsAAEAAQCAbXC6EiAAAKyWyxoWWoIAALBC/lkJEAAABAAQAABWwClKgAAAYAYABAAAAQCWg62AAbbdNQ0bci3E546tgDEDADAbpy3K4A8CAMDs2AAIAQBgRWcAQAAAMAMAAgCAAAACAMDouASAAACwYi7NQ4AQAABWjul/BACAFWT6HwEAwAwACAAAAgAIAACj5BIAAgDAilk3A4AAALB6LqyuUgYEAIDVYvofAQBgBZn+RwAAEABAAABYBWcqAQIAwOo5WwkQAABWzzlKwNisra+vL3cD1tbWdSMwRTdUe1ebFu3Alv3zGzMAAIvsvEUc/EEAAJgu0/8IAAACAAgAAAIACAAAo/QVJUAAABAAQAAAWAEuASAAAAgAIAAAjN3l1VXKgAAA4OwfBAAAAQAEAAABAAQAgKV3vhIgAACsnguVAAEAQAAAAQBgBVykBAgAAGYAQAAAMAMAAgDA2FxdXasMCAAAzv5BAAAYuUuUAAEAYPVcpgQIAAACAAgAACvgUiVAAAAwAwACAIAAAAIAwBhdrgQIAACr5yolQAAAWD3XKAECAIAAAAIAgAAAAgCAAAACAIAAAAIAwHK6TgkQAABWz9eVAAEAQAAAAQBAAAABAEAAAAEAQAAAAQBgOW1SAgQAgNWzmxIgAACsnj2UAAEAYPXsqQQIAABmAEAAAFgB+ygBAgDA6rmLEiAAAAgAIAAACAAgAAAIACAAAIzCsUqAAACweu6jBIzZ2vr6+nI3YG1tXTcCU3BDtW8L/FCgZf/8xgwAwCLaozpaGRAAAFbPQ5QAAQBg9TxSCRAAAFbPo5SAsbIIEGDrjqjOV4adcufqng23Vm5+HdOwzmL/apfqoC1+/tqGRZiXVzdWZ1dfqk6ffP2X6pJ5N2rpx08BAGCrXlT9ljJss4Oqh1ffVj2s+vbqgCn8O2dUn6r+b/UX1bkCgAAAsJFOngxk3L47VT9UPbV6dLX7jP/9mych4K3Vhyb/WwAQAAB27nO+Yfr6TKW41Zn+07YY9HddkOM6p3pb9ZamfJlAABAAgPH7leoXlaGqh1bPq55R7bXAx3l59frqTQ1rCgQAAQBgu11W3aO6ckXbv3f1Y9Xzqwcu2bGfX/1S9XsNszkCwITbAAHu2EHVz6xguw+fnEFfUJ24hIP/5jb894a1HPf0VjYDALC9LqqOr65YgbbepXpZ9VMNz0MYi69VP1n9TzMAZgAAttWh1WtH3sa9qlc03G//kpEN/jXsR/A/qv9q/DMDALA9NlWPaLj/fGyeNQk4R61IX/5x9e+qm1Z1BkAAANg+p1Xf0XguBdy14ba5J65gX36o4TbGa1YxALgEALB9jp+cPY7h8/Op1edXdPCv+t7qL6s9V7HxAgDA9vu+6jVLfPz7VX9Qvbfhuvgq++5JLdYEAAC2xcuqX1/SAe8LDff1M3h69QYBAIBt9dKW586AXauXV/+71Vnotz1+rnruKjXYIkCAnffmhqcG3rygx/eA6u0NT+jj9l3fsMDz89vywxYBAvDC6s8arq0vkj2rV1d/b/Df5nr9cSuyKFAAANgY39ewP8A9FuR4Hj85k/3Fajfds83uV71OAABge9y/+lzDorJ5uXv1pw33uB+rS3bIz1SPHXsjrQEAmI7fa9hOd1ZPEDywYZHfz7ai97VvsH9pWDtxuzsFWgMAwG15bnVq9Zwpf9bu07CC/fSGWxMN/hvjXg1rO8wAmAEA2GGfrX61+l8NzxPYCAdMBqgXV4co8VRc3rDz48VjnAEQAABm5/TqTdX7qwt24L//luqRDQ/uefokBDBdb67+gwAgAABshE3V31Z/UX2m+ofqq7fzs3dveALhdzfs2X+48s3U9Q13dlwoAAgAANNwZXXp5FV18OS1v9LM3WuqVwgAAgAAqxfO7t6wJmA0AcBdAACwdfs33M0xKmYAAOCOnV6dUK2bAQCA1XFc9dAxNUgAAIBt8+NjaoxLAACwba6oDquuK5cAAGBVHNCwJ8Mo7Ko/Gan16ozqi9U51fnVuZPXV6sbJz9z+W38twdNvu5VHVXdbfI6qjqmelDuzYZV9W+rD4+hIS4BMBZnV39V/X31T9UXqqum9babBIFvrR5cPbr69moX3QCj94+TkwAbAQkAzMkN1UcnSfzDDU9dm6eDJmcGj6+eXB2qi2CU1hvWAVwoAAgAzPYX7+TqndWfVpct6HHuPgkBz50EAmttYFx+pPpjiwBh+i6rfq3hPtyHV29d4MG/hvUF76++r+EhIq9pWD0MjMO/GUMjzACwyE6dDPzvaZjyX2b7VD9RvbRhQSGwvD5ePdolAAGAjXdB9crqD6ubRta2vSch4OXVnroaltKl1Z0EAAGAjXN99brJ67qRt/Xw6rXVj+p2WEpHr6+vn7XMDbAGgEXxVw231rxqBQb/GvYl+LHqmX3j+e/A8rjPsjdAAGDerm7YX/txzf9Wvnl4T3Xv6iPeCrBUjhIAYMd9qnpAw7X+VXZRwx0Dr65u9raApXCEAAA75sTqe6ozlaImA/+rqmc33EYILLbDBQDYPl+vfrL6aQPdbXp3w+WQK5UCFtrS384rADBL11XPqN6mFFv1ieoJLfZmR7Dq7iIAwLa5unpMdZJSbJOTG9YFXKcUsJD2FgDgjl1fPan6G6XYLp+unpaFgSAACAAsoa9XT2+Y1mb7/Xn1MmWAhbOXAABb95LqA8qwU95YvU8ZYKEs/VbetgJmmt47Oftn5x1SfaE6VClgIdy8vr6+qxkAuLXTq+cow4a5uHquMsDCWPrbmAUAppKMGx59e7VSbKgPNsyqAPN3rQAAt3Zi9UllmIqXN75HJMMyWvpbdAUANtoVDXvaMx1frn5PGUAAEABYNL9ZfU0Zpup12UYZ5m3pL3EKAGyki6s3KMPUnVW9Sxlgrs4XAOAb3lxdpQwz4TIAzNe5AgAMbs5Dfmbp5OoUZQABQABg3v6yOk8ZZuoPlAAEAAGAeft9JZi59ygBzM2Zy94AWwGzEa6pDs7K9Hk4ozpaGWCm1quD1tfXrzADwKr7hMF/bv6PEsDMfblhz5OlJgCwET6qBHMNX8BsfW4MjRAA2AgfV4K5+ZQSwMz9gwAAdflYfhmW1JnV9coAM/UxAQDqn6tNyjA3mxquRwKzcVH1dwIA1GlKMHdfUgKYmY+M5aRHAGBnna4EAgCskA+NpSECAALA8vuqEsBMXF/9xVgas6v+ZCedowRzd7USLIWvVX9ffaZh1ubMhic7XnmLnzug2n/y9YDqvtUDqvtV9652U8q5+V/VZQIAGHwWxTVKsJDWJwP+SdX/qE7dxv/ulgPMB7f4frfqIdWTq++v7qXMM/WOMTXGVsDsrHtUZyvDXP3QZJBhMVxbvbP67eqLU/63jqueWr2gOlLpp+rcyefdzf+a8JZ8/LQGAGef+oCNsWlyhnhM9fwZDP41rMF5TXXP6tnVZ3XD1PzuloP/GAgA7CyXAOZvTQnm7kvVw6rnVBfO4d+/qfqj6tuqx1R/q0s21OXV74ytUQIAG/HBw3ztrwRz9b7JwPvpBTmej1XfWT2zETyydkH8TiN4+I8AwEbbRwkEgBX236und+uV/PO2Xr2n4a6Bl1VX6aoddnX1m2NsmACAACAAsGP+oOFa/yKvBLuh+vWGWwn/TJftkNdXlwgAIAAsogOUYOZOrn6q5dkS9ivVD1RPqc7Tfdvs1EkAGCUBAAFg+R2hBDN1YcO0/41LeOwnVfev/lQ33qH16qcbZlEEALgNpp/n7z5KMFMvWvKz6MuqZzTcseAuntv3rkby2F8BgGk5SgkEgBXykYbFdWPwjurBDY/05pt9ufqZsTdSAGBnHaMEc3VEdaAyzMR69dKRten06rsmwYbBDQ0zJFeMvaECAAKAs3+2zZ9Xnx9hu66onli9RRfXJOR9ZhUaKgAgACy3hynBzPz6iNv29eqFDYveVnlzr99vhDv+CQBMyz2VYK6+Vwlm4qzqr1egnSdWj60uXsE+/mD1k6vUYAGAnXVEdRdlmIs7V9+uDDPxnhZ7w5+N9InJ++pvVqh/P9Vwa+fXBQDYPt+lBHPxeL/DM/O+FWvv2dUjqlevwKD4t9WTq+tW7U3twwMBYHk9QQlm4rLqcyvY7q9Xr6oeWZ0x4mD36EkfrxwBgI3wcCWYuTtVP6wMM/GJRvYc+O10cnWv6sWN56FC69UvNEz7X7eqHSsAsBG+tdpDGWbq2dVeyjATn1KCbqreNPld/+CSt+WS6lnV61qddR0CAFOzR/UoZZiZteoFyjAzX1SCf/Xlhuvl39tw7XzZfKC6X+PZzVEAYCE8RQlm5jHVCcowM7bKvbUPVw+tnlT9/RIc7znVj1XfX12g+yZnEuvryz0Dsra2tq4bF8JF1eGt9rXSWZ7FPEkZZuKaar9WfKr4jj6GG3YSfNEknK4t2MD/murtTeHpjUs/fgoAbKBHVx9Xhql6SPVpZZiZ0zLbsj1OaNhN8MerA+Z0DOsN6zZ+v3pnU3xs87KPny4BsJFcBpi+X1GCmbpQCbbLqZOZgLs1TLn/SfW1Gf7br6qOq767+r1pDv5jYAaAjXRRdaRfuql5ZGZYZu191dOUYadPNL+tYeOqh1X3b9hBdGdsqr5UfXLyO/Hx6ryZTzUs+fi5q/cmG+jQhnvT360UU/GrSjBzlyrBTttU/b/Ja7ODJ0Hg/pPZgv2rfRvWW+w7+ZkbqmurKycnFWc1PL74tMngf4PSCgAslhcKAFPx7Gy4NA/XL/LBLfEZ6KUNGyx9wltsfqwBYKM9fJLq2TgHVL+hDHPhLBMBALbDTyjBhnpZnri4sAFgfX19bi8QAFg0z2m4xsfOO776eWWYmzUlQACAbbdv9RJl2Gm7N6yn8JyF+b6XQQCA7fAz1YHKsFN+qeHhKwgAIACwNPbPA2t2xiMbHleKAAACAEvn55rfdqDL7JDqHX4/F8I+SoAAADs2kP1nZdgue1QnVUcrxULYXwkQAGDHvLhhJTt3bK3h4SU2/FkcRyoBAgDsmN2qX1OGbfIfs+/8ojk8twIiAMAOe0r1TGXYqmdVr1WGhbNHNmFCAICdcmKmU2/PQ6q3O9NcWN63CACwEw6chACD3K3r8u5qT6UQAEAAYKyeWD1fGb7JW6t7KIMAAAIAY/eG6r7KUNVzq6crw8I7RgkQAGDn7VX9caa8j63e5O2wFO6tBAgAsDEeUP2XFa/BidllTgCAOVpb9mdKr62teSj2ctpUPbr65Aq2/d83rPpneRxYXXFbf7Hsn6GYAYB5vPfe1nBJYJUcWv2G7l8691ICBADYOMe1es8K+MXqYF2/dE5QAgQA2Fj/qbr/irT1vrkNcpn7DgQA2EC7tjpT4r9c7aLLzQCAAACDxzU8L2DMvqv6IV29tB6oBIyNuwBYFGc23G51w0jb99Hqe3TzUrtzdckt/9BdAJgBgJ1zdPWSkbbtOwz+o/BtSoAAANPx8uquI2zXz+raUXiwEiAAwHTsV71sZG06rHqarh2FBykBAgBMz081XGsdi+dVu+tWMwAgAMDW7VP93Ija80xdOhrHNmwJDAIATMnzq31H0I7jcv/4mKzlMgACAEzVwdVTR9COH9CVo+MyAAIATNmzR9CGH9SNo/OtSsBY2AiIRbVeHVOdtaTHv2d1VcNWx4zHKdV9vumNaiMgzADAxma7hi2Cl9W9Df6jdHy1tzIgAMB0ffcSH7up4nHaJQsBEQBg6h62xMfu4THjZSEgAgBM2dEt73Sr2//GS7hDAIAZOHRJj/tOum60PBQIAQBm4JAlPe4DdN1o3bfaQxkQAMB79Lbsr+tGa/eGuzzAhytM0WVLetwH6rpRu58SIADAdF3ud4sFdLwSIADA9FxSXbSkx36V7hs1lwAQAGCK/mGJj/1q3Tdq91ICBACYns8u8bFfpvtG7diGXQFBAIAp+J9LfOyn6b5R27NhoyoQAGCDfaX6myU+/lN14ei5DIAAAFPwvoZHAi+rf9GFo3esEiAAwMa6qXrjkrfho0seYLhjRygBAgBs/Nn/uUvehguqL+jKUTtcCRAAYOPcXL1uJG35K905aocpAQIAbJwTq38cUVs26dLRcgmApba2vr7clynX1tZcZx2Pyxu2WL14RG36aPU9unaUrqr2X/bPUMwAwCL42ZEN/lW/oVtHa7/JCwQA2Al/VL1zhO36y+oDune0DlICBADYcV+qfnrE7XtxdZ1uHqXdlQABAHbM16rHV1eOuI1nVM/OvgBjtIcSIADA9ruxespkgBy7k6o36HIBAAQAqJdUn1yh9r6i+hPdLgCAAMAqe2n15hVr800NlwJ+V/ePhjUALK1dlYA5eHmrOx2+qWHB46nVa51BLoUrGtaoXFHdcIu/u1p5WFZj2AjoUdUTqvtW96nunpmNRXVz9fPVm5Siqgc3XBI4Xilmbr26sPpqdV51/uR13uTPzm14nsOFd/h/ZCMgBIC5BYBb/tHe1b23eB1THT35eogun+tZ1DOrDynFN9mz4TbBl1f7K8eG2TQZ0M/c4nXWFt9/teGSzM4nCQEAAWBhAsDW7DOZITiqOrK6R/XA6kHZ13ua/qb69w3T3ty2u1SvrJ4zCbHcsYtuMahv+f3ZDXeZTH8qQQBAAFiKALA1B1fHVcdWJ0y+Hjd5HeCtskOualj5/pY8FGdbHdKwJfLzWu0Zq/WGKfizJoP55q+bX2e2IJsrCQAIAMsfALbm0EkQOH6LULA5IOzjbXQrVzasdP/NhqlWtt/u1RMbZk6+t9ptZO27oW9ccz/zFoP75tcNS5FUBAAEgFEHgK05YotQcFx1z+puDZcYVu154adVb58M/lf49dowB1SPq55UPXYJ3ldXNCyiO3cSAM/ZYrA/d/L9RaOZqhAAEABWNgBszR5bhIGj+sbag7s1rEU4suVf+HVB9f7qXdWn/UrNxD2q76q+o2Gh6wmT99Y0fhluri6pLp18veX3lzRs53zp5L1wTnXtKnWGAIAAIADszNndkVsEgiMmZ3iHNlwD3vz9XgtwrDc1bNv7/xp28PtkFvYtir0n7507TV4HT94z+7T1zWour66fDNpXNFxX3/z91yZ/jwCAACAAzNF+kzBw0FZe+00Ggj2qAycf/PveYhDY/Pdb2rzBydXVNQ3TthdNXhdMBv1TqtPboFunQAAAAQAAmDE75gGAAAAACAAAgAAAAAgAAIAAAAAIAACAAAAACAAAgAAAAAgAAIAAAAAIAACAAAAACAAAgAAAAAgAAIAAAAACAAAgAAAAAgAAIAAAAAIAACAAAAACAAAgAAAAAgAAIAAAAAIAACAAAAACAAAgAAAAAgAAIAAAAAIAAAgAAIAAAAAIAACAAAAACAAAgAAAAAgAAIAAAAAIAACAAAAACAAAgAAAAAgAAIAAAAAIAACAAAAACAAAIAAAAAIAACAAAAACAAAgAAAAAgAAIAAAAAIAACAAAAACAAAgAAAAAgAAIAAAAAIAACAAAAACAAAgAACAAAAACAAAgAAAAAgAAIAAAAAIAACAAAAACAAAgAAAAAgAAIAAAAAIAACAAAAACAAAgAAAAAgAAIAAAAD8/wEAhIGXC2Jo564AAAAASUVORK5CYII=;rotation=60;imageBackground=none;imageBorder=none;flipV=1;flipH=1;" vertex="1" parent="1">
          <mxGeometry x="681" y="395" width="60" height="60" as="geometry" />
        </mxCell>
      </root>
    </mxGraphModel>
  </diagram>
</mxfile>
